<svg width="100" height="18" viewBox="0 0 100 18" fill="none" xmlns="http://www.w3.org/2000/svg">
<path d="M8.48075 0.62615L6.16169 5.28026L0.973099 6.029C0.0426336 6.16257 -0.330263 7.29798 0.344502 7.94829L4.09833 11.5689L3.21048 16.6835C3.05067 17.608 4.0344 18.3005 4.85833 17.8682L9.5 15.4532L14.1417 17.8682C14.9656 18.297 15.9493 17.608 15.7895 16.6835L14.9017 11.5689L18.6555 7.94829C19.3303 7.29798 18.9574 6.16257 18.0269 6.029L12.8383 5.28026L10.5193 0.62615C10.1037 -0.203435 8.89981 -0.213981 8.48075 0.62615Z" fill="#808080"/>
<path d="M28.4807 0.62615L26.1617 5.28026L20.9731 6.029C20.0426 6.16257 19.6697 7.29798 20.3445 7.94829L24.0983 11.5689L23.2105 16.6835C23.0507 17.608 24.0344 18.3005 24.8583 17.8682L29.5 15.4532L34.1417 17.8682C34.9656 18.297 35.9493 17.608 35.7895 16.6835L34.9017 11.5689L38.6555 7.94829C39.3303 7.29798 38.9574 6.16257 38.0269 6.029L32.8383 5.28026L30.5193 0.62615C30.1037 -0.203435 28.8998 -0.213981 28.4807 0.62615Z" fill="#808080"/>
<path d="M49.0344 0.62615L46.8374 5.28026L41.9219 6.029C41.0404 6.16257 40.6871 7.29798 41.3264 7.94829L44.8826 11.5689L44.0415 16.6835C43.8901 17.608 44.8221 18.3005 45.6026 17.8682L50 15.4532L54.3974 17.8682C55.1779 18.297 56.1099 17.608 55.9585 16.6835L55.1174 11.5689L58.6736 7.94829C59.3129 7.29798 58.9596 6.16257 58.0781 6.029L53.1626 5.28026L50.9656 0.62615C50.572 -0.203435 49.4314 -0.213981 49.0344 0.62615Z" fill="#808080"/>
<path d="M69.4807 0.62615L67.1617 5.28026L61.9731 6.029C61.0426 6.16257 60.6697 7.29798 61.3445 7.94829L65.0983 11.5689L64.2105 16.6835C64.0507 17.608 65.0344 18.3005 65.8583 17.8682L70.5 15.4532L75.1417 17.8682C75.9656 18.297 76.9493 17.608 76.7895 16.6835L75.9017 11.5689L79.6555 7.94829C80.3303 7.29798 79.9574 6.16257 79.0269 6.029L73.8383 5.28026L71.5193 0.62615C71.1037 -0.203435 69.8998 -0.213981 69.4807 0.62615Z" fill="#808080"/>
<path d="M89.4807 0.62615L87.1617 5.28026L81.9731 6.029C81.0426 6.16257 80.6697 7.29798 81.3445 7.94829L85.0983 11.5689L84.2105 16.6835C84.0507 17.608 85.0344 18.3005 85.8583 17.8682L90.5 15.4532L95.1417 17.8682C95.9656 18.297 96.9493 17.608 96.7895 16.6835L95.9017 11.5689L99.6555 7.94829C100.33 7.29798 99.9574 6.16257 99.0269 6.029L93.8383 5.28026L91.5193 0.62615C91.1037 -0.203435 89.8998 -0.213981 89.4807 0.62615Z" fill="#808080"/>
</svg>
